<svg id="Layer_1" data-name="Layer 1" xmlns="http://www.w3.org/2000/svg" viewBox="0 0 25 25"><defs><style>.cls-1{fill:#fff}</style></defs><title>social-icon</title><path class="cls-1" d="M23.9 8.8A12 12 0 1 1 12.5.51 12 12 0 0 1 23.9 8.8zM12.5 1.59a10.91 10.91 0 1 0 10.37 7.54A10.91 10.91 0 0 0 12.5 1.59z"/><path class="cls-1" d="M8.75 10.67h2V17h-2zm1-3.15a1.14 1.14 0 1 1-1.16 1.14 1.14 1.14 0 0 1 1.14-1.14M12 10.67h1.89v.87a2.07 2.07 0 0 1 1.87-1c2 0 2.36 1.31 2.36 3V17h-2v-3.07c0-.74 0-1.68-1-1.68s-1.18.8-1.18 1.63V17H12z"/></svg>